<svg xmlns="http://www.w3.org/2000/svg" viewBox="0 0 32 32" fill="none">
  <rect width="32" height="32" rx="8" fill="#ecfccb"/>
  <circle cx="16" cy="12" r="7" fill="#facc15" opacity="0.95"/>
  <path d="M16 6v12" stroke="#f59e0b" stroke-width="1.2" stroke-linecap="round" opacity="0.5"/>
  <path d="M16 18c-2.5-1.5-4-3.8-4-6.5 0-2.2 1-4.1 2.5-5.2M16 18c2.5-1.5 4-3.8 4-6.5 0-2.2-1-4.1-2.5-5.2" stroke="#fbbf24" stroke-width="0.9" opacity="0.45"/>
  <path d="M16 20c-3 1-5 3.2-5 5.8 0 .7.6 1.2 1.3 1.2h7.4c.7 0 1.3-.5 1.3-1.2 0-2.6-2-4.8-5-5.8z" fill="#22c55e"/>
  <path d="M12 24.5c1.2-1.8 2.6-3 4-3.4M20 24.5c-1.2-1.8-2.6-3-4-3.4" stroke="#15803d" stroke-width="0.8" opacity="0.4"/>
</svg>
